# xmcd
#
# Track frame offsets:
#	150
#	24115
#	55935
#	77800
#	104810
#	123006
#	139654
#	160897
#	179011
#	190623
#	207546
#	222355
#	242881
#
# Disc length: 3528 seconds
#
# Revision: 2
# Processed by: cddbd v1.5.2PL0 Copyright (c) Steve Scherf et al.
# Submitted via: audiograbber 1.83.01
#
DISCID=b90dc60d
DTITLE=Anna Zauner-Pagitsch - Ascanio Mayone Libro II
DYEAR=2006
DGENRE=Instrumental
TTITLE0=Toccata prima
TTITLE1=Partite sopra il tenore antico, o romanesca
TTITLE2=Toccata seconda
TTITLE3=Canzona francese prima
TTITLE4=Recercar del decimo tuono
TTITLE5=Recercar sopra il canto fermo di costantio Festa e per sonar all Arpa
TTITLE6=Toccata terza
TTITLE7=Canzona franzese terza
TTITLE8=Recercar sopra il canto fermo di costantio Festa
TTITLE9=Toccata quarta
TTITLE10=Recercar del quarto Tono
TTITLE11=Toccata quinta
TTITLE12=Canzon francesa quarta
EXTD=Order at http://www.harfen.at
EXTT0=
EXTT1=
EXTT2=
EXTT3=
EXTT4=
EXTT5=
EXTT6=
EXTT7=
EXTT8=
EXTT9=
EXTT10=
EXTT11=
EXTT12=
PLAYORDER=
